<svg xmlns="http://www.w3.org/2000/svg" version="1.1" xmlns:xlink="http://www.w3.org/1999/xlink" xmlns:svgjs="http://svgjs.com/svgjs" width="1440" height="1000" preserveAspectRatio="none" viewBox="0 0 1440 1000"><g mask="url(&quot;#SvgjsMask1039&quot;)" fill="none"><rect width="1440" height="1000" x="0" y="0" fill="rgba(27, 25, 25, 1)"></rect><path d="M0,489.332C96.428,482.627,192.393,477.252,278.557,433.444C371.022,386.432,475.685,330.432,507.019,231.548C538.128,133.371,467.217,35.413,435.756,-62.652C409.735,-143.761,400.73,-235.125,338.606,-293.404C278.466,-349.822,184.01,-336.415,108.532,-369.625C17.44,-409.706,-50.457,-520.675,-149.17,-508.025C-246.224,-495.587,-301.74,-390.202,-357.627,-309.885C-408.854,-236.266,-448.41,-154.98,-456.954,-65.7C-465.251,20.995,-428.64,101.133,-404.982,184.949C-376.703,285.134,-387.833,411.449,-304.617,473.994C-221.665,536.34,-103.519,496.53,0,489.332" fill="#121010"></path><path d="M1440 1540.953C1560.979 1545.846 1688.8600000000001 1610.458 1795.659 1553.4160000000002 1903.313 1495.9180000000001 1937.038 1361.145 1985.983 1249.342 2034.1889999999999 1139.228 2111.609 1023.694 2078.101 908.255 2044.8110000000001 793.569 1913.92 743.8 1818.426 672.092 1742.6 615.153 1657.93 582.217 1577.349 532.233 1460.396 459.688 1371.598 278.99699999999996 1238.002 312.05899999999997 1106.731 344.54600000000005 1123.06 548.405 1050.609 662.591 992.2629999999999 754.547 871.481 808.241 854.883 915.873 838.262 1023.657 924.107 1115.817 965.136 1216.863 1008.354 1323.301 1007.477 1460.614 1102.363 1525.373 1197.344 1590.1970000000001 1325.1 1536.3049999999998 1440 1540.953" fill="#252222"></path></g><defs><mask id="SvgjsMask1039"><rect width="1440" height="1000" fill="#ffffff"></rect></mask></defs></svg>